<svg xmlns="http://www.w3.org/2000/svg" viewBox="0 0 388 388"><defs><style>.cls-1{fill:#fff;}</style></defs><title>logo</title><g id="Calque_2" data-name="Calque 2"><g id="Calque_1-2" data-name="Calque 1"><path class="cls-1" d="M194,0C86.86,0,0,86.86,0,194S86.86,388,194,388s194-86.86,194-194S301.14,0,194,0Zm90.07,255.26A102.41,102.41,0,0,1,257.33,259c-16.72,0-31.69-4.86-44.12-14.45C198.6,233.3,186,211.75,174.75,178.71c-2.58-7.57-4.76-14.82-6.53-21.14a153,153,0,0,0-19.06,10.24c-28.19,17.75-51.84,44-70.28,77.94L43.51,226.54C97,128,175.37,112.29,178.68,111.66L198,108l4.05,19.27c6.06,28.7,21.15,74.17,35.72,85.42,14.32,11.06,47.16,8.2,85.44-24.19l26,30.73C328.7,236.65,305.55,249.44,284.07,255.26Z"/></g></g></svg>